<?xml version="1.0" standalone="no"?>
<!DOCTYPE svg PUBLIC "-//W3C//DTD SVG 20010904//EN"
 "http://www.w3.org/TR/2001/REC-SVG-20010904/DTD/svg10.dtd">
<svg version="1.0" xmlns="http://www.w3.org/2000/svg"
 width="512.000000pt" height="512.000000pt" viewBox="0 0 512.000000 512.000000"
 preserveAspectRatio="xMidYMid meet">
<metadata>
Created by potrace 1.14, written by Peter Selinger 2001-2017
</metadata>
<g transform="translate(0.000000,512.000000) scale(0.100000,-0.100000)"
fill="#000000" stroke="none">
<path d="M3521 5104 c-115 -30 -217 -108 -324 -248 -74 -95 -92 -124 -145
-231 -37 -75 -95 -233 -106 -286 -2 -13 -11 -55 -19 -94 -20 -93 -25 -125 -34
-220 -14 -145 -7 -564 11 -661 2 -11 7 -50 11 -88 8 -81 18 -112 48 -145 47
-51 44 -51 666 -51 348 0 590 4 605 10 32 12 81 59 89 85 9 29 14 62 22 141 4
38 9 78 11 89 16 86 22 439 11 577 -37 431 -166 744 -410 989 -56 57 -139 108
-212 131 -51 16 -167 17 -224 2z"/>
<path d="M1170 3009 c-79 -9 -140 -31 -202 -76 -109 -79 -165 -183 -204 -383
-62 -311 31 -721 251 -1110 110 -194 328 -501 373 -524 42 -22 92 -26 128 -11
18 7 225 125 461 261 235 136 449 259 474 273 89 51 114 80 124 143 5 29 -4
60 -41 150 -180 439 -427 801 -690 1016 -129 105 -314 201 -464 240 -97 26
-131 29 -210 21z"/>
<path d="M3154 2879 c-66 -8 -98 -30 -125 -85 -24 -52 -23 -64 23 -229 87
-315 194 -550 310 -680 143 -160 360 -168 511 -20 133 129 269 435 359 800 23
97 0 162 -69 196 -43 21 -56 21 -501 23 -251 0 -480 -2 -508 -5z"/>
<path d="M2439 1204 c-62 -37 -134 -78 -159 -92 -52 -29 -328 -188 -350 -202
-8 -5 -63 -36 -122 -70 -100 -57 -157 -105 -159 -133 0 -7 -2 -21 -5 -32 -2
-11 1 -39 7 -62 10 -35 33 -64 139 -165 160 -154 165 -158 280 -244 179 -133
308 -194 423 -199 197 -10 340 122 365 336 15 125 3 320 -28 464 -5 22 -12 56
-15 75 -11 69 -76 305 -88 320 -37 49 -76 70 -130 70 -35 0 -65 -13 -158 -66z"/>
</g>
</svg>
